<svg width="256" height="256" viewBox="0 0 256 256" fill="none" xmlns="http://www.w3.org/2000/svg">
  <defs>
    <linearGradient id="bg" x1="32" y1="18" x2="224" y2="238" gradientUnits="userSpaceOnUse">
      <stop stop-color="#007A96"/>
      <stop offset="1" stop-color="#0D3F53"/>
    </linearGradient>
    <linearGradient id="acc" x1="45" y1="220" x2="201" y2="86" gradientUnits="userSpaceOnUse">
      <stop stop-color="#F68F2B"/>
      <stop offset="1" stop-color="#FFD36A"/>
    </linearGradient>
  </defs>
  <rect x="16" y="16" width="224" height="224" rx="56" fill="url(#bg)"/>
  <path d="M66 182V72H87L140 142V72H161V182H140L87 112V182H66Z" fill="white"/>
  <path d="M165 182V72H198C217 72 230 83 230 100C230 113 222 124 209 127L232 182H208L188 133H186V182H165ZM186 116H196C205 116 211 110 211 102C211 93 205 88 196 88H186V116Z" fill="url(#acc)"/>
</svg>
